<svg id="Layer_1" data-name="Layer 1" xmlns="http://www.w3.org/2000/svg" viewBox="0 0 217.81 52.37">
  <defs>
    <style>
      .cls-1 {
        fill: #231f20;
      }

      .cls-2 {
        fill: #e7b725;
      }

      .cls-3 {
        fill: none;
      }
    </style>
  </defs>
  <path class="cls-1" d="M26.92,44.69H14.63V57.27h-7V26.56h7V38.79H26.92V26.56h7V57.27h-7Z" transform="translate(-7.61 -5.68)"/>
  <path class="cls-1" d="M61.38,57.27,59.07,50H48.31L46,57.27H38.88L49.51,26.56H58.2L68.68,57.27ZM53.76,32.63h-.23L50,44.29h7.39Z" transform="translate(-7.61 -5.68)"/>
  <path class="cls-1" d="M71,42.13C71,31.75,76.58,26,85.27,26c5.91,0,9.7,2.29,12.06,7.21l-6,3c-.84-2.56-2.55-4.27-6-4.27-4.11,0-6.84,2.64-6.84,7.48v4.93c0,4.84,2.73,7.48,6.84,7.48a6.58,6.58,0,0,0,6.42-4.58l5.73,3.17C95,55.12,91.18,57.8,85.27,57.8,76.58,57.8,71,52.52,71,42.13Z" transform="translate(-7.61 -5.68)"/>
  <path class="cls-1" d="M114,43.89l-4.21,4.84v8.54h-7V26.56h7V41.17h.28l4.57-6,7.26-8.66h7.94L119,39.19l10.82,18.08h-8.27Z" transform="translate(-7.61 -5.68)"/>
  <path class="cls-2" d="M166.84,42.39c0-10.39,5.59-16.11,14.27-16.11,5.92,0,9.7,2.29,12.06,7.22l-6,3c-.83-2.55-2.54-4.27-6-4.27-4.11,0-6.84,2.64-6.84,7.48v4.93c0,4.84,2.73,7.48,6.84,7.48a6.58,6.58,0,0,0,6.42-4.57l5.73,3.16c-2.4,4.67-6.23,7.35-12.15,7.35C172.43,58.05,166.84,52.77,166.84,42.39Z" transform="translate(-7.61 -5.68)"/>
  <rect class="cls-2" x="195.81" y="10.6" width="21.83" height="2.03"/>
  <rect class="cls-2" x="122.18" y="10.6" width="21.84" height="2.03"/>
  <rect class="cls-3" x="173.27" y="5.67" width="5.09" height="2.17"/>
  <polygon class="cls-3" points="172.72 5.14 172.72 3.18 170.31 2.14 170.31 5.14 172.72 5.14"/>
  <polygon class="cls-3" points="173.25 5.17 177.37 5.17 173.25 3.4 173.25 5.17"/>
  <rect class="cls-3" x="161.44" y="11.43" width="5.09" height="2.17"/>
  <rect class="cls-3" x="173.27" y="11.43" width="5.09" height="2.17"/>
  <polygon class="cls-3" points="169.5 2.19 167.1 3.23 167.08 5.14 169.5 5.14 169.5 2.19"/>
  <polygon class="cls-3" points="166.55 5.16 166.56 5.16 166.58 3.42 162.44 5.17 166.55 5.17 166.55 5.16"/>
  <rect class="cls-3" x="170.3" y="5.68" width="2.42" height="2.15"/>
  <rect class="cls-3" x="173.27" y="8.55" width="5.09" height="2.17"/>
  <rect class="cls-3" x="161.44" y="8.55" width="5.09" height="2.17"/>
  <rect class="cls-3" x="167.07" y="5.68" width="2.42" height="2.15"/>
  <rect class="cls-3" x="161.44" y="5.67" width="5.09" height="2.17"/>
  <rect class="cls-2" x="167.07" y="5.68" width="2.42" height="2.15"/>
  <rect class="cls-2" x="161.44" y="8.55" width="5.09" height="2.17"/>
  <polygon class="cls-2" points="166.55 5.17 166.55 5.16 166.56 5.16 166.58 3.42 162.44 5.17 166.55 5.17"/>
  <polygon class="cls-2" points="167.08 5.14 169.5 5.14 169.5 2.19 167.1 3.23 167.08 5.14"/>
  <rect class="cls-2" x="161.44" y="11.43" width="5.09" height="2.17"/>
  <rect class="cls-2" x="161.44" y="5.67" width="5.09" height="2.17"/>
  <rect class="cls-2" x="170.3" y="5.68" width="2.42" height="2.15"/>
  <polygon class="cls-2" points="170.31 5.14 172.72 5.14 172.72 3.18 170.31 2.14 170.31 5.14"/>
  <rect class="cls-2" x="173.27" y="5.67" width="5.09" height="2.17"/>
  <rect class="cls-2" x="173.27" y="8.55" width="5.09" height="2.17"/>
  <polygon class="cls-2" points="173.25 3.4 173.25 5.17 177.37 5.17 173.25 3.4"/>
  <rect class="cls-2" x="173.27" y="11.43" width="5.09" height="2.17"/>
  <rect class="cls-3" x="205.19" y="17.82" width="2.6" height="1.27"/>
  <polygon class="cls-2" points="213.07 21.37 211.22 21.37 212.66 25.6 213.07 25.6 213.07 21.37"/>
  <polygon class="cls-2" points="213.07 20.84 213.07 19.6 210.61 19.6 211.04 20.84 213.07 20.84"/>
  <rect class="cls-2" x="210.46" y="17.82" width="2.6" height="1.27"/>
  <rect class="cls-2" x="213.58" y="17.82" width="2.6" height="1.27"/>
  <rect class="cls-2" x="213.58" y="21.37" width="2.6" height="4.24"/>
  <rect class="cls-2" x="213.58" y="19.6" width="2.6" height="1.24"/>
  <rect class="cls-3" x="136.17" y="19.71" width="2.6" height="1.24"/>
  <rect class="cls-3" x="139.29" y="17.93" width="2.6" height="1.27"/>
  <rect class="cls-3" x="133.05" y="17.93" width="2.6" height="1.27"/>
  <rect class="cls-3" x="136.17" y="17.93" width="2.6" height="1.27"/>
  <rect class="cls-3" x="136.17" y="21.48" width="2.6" height="4.24"/>
  <polygon class="cls-2" points="139.29 24.93 141.16 21.48 139.29 21.48 139.29 24.93"/>
  <rect class="cls-2" x="136.17" y="17.93" width="2.6" height="1.27"/>
  <polygon class="cls-2" points="142.41 19.18 143.08 17.93 142.41 17.93 142.41 19.18"/>
  <rect class="cls-2" x="136.17" y="19.71" width="2.6" height="1.24"/>
  <rect class="cls-2" x="139.29" y="17.93" width="2.6" height="1.27"/>
  <polygon class="cls-2" points="139.29 20.95 141.44 20.95 141.89 20.13 141.89 19.71 139.29 19.71 139.29 20.95"/>
  <polygon class="cls-2" points="136.17 25.57 136.25 25.72 138.77 25.72 138.77 21.48 136.17 21.48 136.17 25.57"/>
  <polygon class="cls-2" points="133.05 19.89 133.64 20.95 135.65 20.95 135.65 19.71 133.05 19.71 133.05 19.89"/>
  <polygon class="cls-2" points="136.53 26.22 137.56 28.11 138.59 26.22 136.53 26.22"/>
  <polygon class="cls-2" points="132.53 18.95 132.53 17.93 131.98 17.93 132.53 18.95"/>
  <polygon class="cls-2" points="133.93 21.48 135.65 24.63 135.65 21.48 133.93 21.48"/>
  <rect class="cls-2" x="133.05" y="17.93" width="2.6" height="1.27"/>
  <rect class="cls-2" x="195.81" y="10.59" width="21.84" height="2.03"/>
  <path class="cls-2" d="M225.27,18.81H202.94V14.24l-14.89-.13v-3.9l-10.5-4.53-10.47,4.53v3.9l-14.93.13v4.57H129.8v4.31h23.31L163.2,23h61.09v8.79h-3.85l2.43,7.1,2.42,7.1Zm-70.53-1.53h-1v-1h1Zm2.87,0h-1v-1h1Zm2.85,0h-1v-1h1Zm2.84,0h-1v-1h1Zm2.85,0h-1v-1h1Zm20.31-3.58v6.05h-6.09V14h-5.74v5.75h-6.09V10.85h.18l8.85-3.74.18.07h0l2.94,1.25s0,0,0,0l5.57,2.39h.17ZM190,17.3h-1v-1h1Zm2.84,0h-1v-1h1Zm2.85,0h-1v-1h1Zm2.87,0h-1v-1h1Zm2.88,0h-1v-1h1Z" transform="translate(-7.61 -5.68)"/>
  <g>
    <polygon class="cls-2" points="178.22 33.28 178 32.83 185.99 28.88 186.22 29.33 178.22 33.28"/>
    <polygon class="cls-2" points="185.99 43.58 178.06 39.65 178.29 39.2 186.22 43.13 185.99 43.58"/>
    <g>
      <path class="cls-2" d="M191.61,45.87l-.47-.15a12.19,12.19,0,0,0,.63-3.89,12.37,12.37,0,0,0-.58-3.73l.48-.15a12.73,12.73,0,0,1,.6,3.88A12.58,12.58,0,0,1,191.61,45.87Z" transform="translate(-7.61 -5.68)"/>
      <polygon class="cls-2" points="183.43 32.93 183.88 32.53 184.48 32.57 183.52 31.51 183.43 32.93"/>
      <polygon class="cls-2" points="183.38 39.52 183.82 39.93 184.43 39.9 183.46 40.95 183.38 39.52"/>
    </g>
  </g>
  <g>
    <path class="cls-2" d="M158.88,35.8h1.63v-.42a1.08,1.08,0,0,1-1-1.08,1.1,1.1,0,0,1,1-1.08V32.8h-1.63Z" transform="translate(-7.61 -5.68)"/>
    <polygon class="cls-2" points="150.78 50.74 150.78 46.73 152.9 46.73 152.9 45.71 150.78 45.71 150.78 41.7 152.9 41.7 152.9 40.68 150.78 40.68 150.78 36.67 152.9 36.67 152.9 35.65 150.78 35.65 150.78 31.65 152.9 31.65 152.9 30.63 150.78 30.63 150.78 26.62 152.9 26.62 152.9 25.6 150.78 25.6 150.78 21.59 152.9 21.59 152.9 20.88 145.42 20.88 137.61 35.27 137.52 35.27 129.62 20.88 122.18 20.88 122.18 51.59 128.78 51.59 128.78 31.13 128.92 31.13 131.37 35.97 137.52 46.8 143.8 35.93 146.16 31.44 146.3 31.44 146.3 51.59 152.9 51.59 152.9 50.74 150.78 50.74"/>
    <path class="cls-2" d="M158.88,30.78h1.63v-.43a1.08,1.08,0,0,1-1-1.08,1.1,1.1,0,0,1,1-1.08v-.42h-1.63Z" transform="translate(-7.61 -5.68)"/>
    <path class="cls-2" d="M158.88,40.83h1.63v-.42a1.08,1.08,0,0,1,0-2.16v-.42h-1.63Z" transform="translate(-7.61 -5.68)"/>
    <path class="cls-2" d="M158.88,55.92h1.63v-.43a1.08,1.08,0,0,1-1-1.08,1.1,1.1,0,0,1,1-1.08v-.42h-1.63Z" transform="translate(-7.61 -5.68)"/>
    <path class="cls-2" d="M158.88,45.86h1.63v-.42a1.1,1.1,0,0,1-1-1.08,1.08,1.08,0,0,1,1-1.08v-.43h-1.63Z" transform="translate(-7.61 -5.68)"/>
    <path class="cls-2" d="M158.88,50.89h1.63v-.42a1.1,1.1,0,0,1-1-1.08,1.08,1.08,0,0,1,1-1.08v-.43h-1.63Z" transform="translate(-7.61 -5.68)"/>
  </g>
  <path class="cls-2" d="M205.24,29.45" transform="translate(-7.61 -5.68)"/>
  <path class="cls-2" d="M214.93,26.56h-8.69l-.23.68,2.59.89-.15.44-2.59-.89L205.41,29l1.06.36-.15.44-1.06-.36-.44,1.27,1.59.55-.16.44-1.58-.55-.44,1.28,1.05.37-.15.44-1.06-.37-.44,1.28,2.6.9-.16.43-2.59-.89L203,35.83l1.05.36-.15.44-1.06-.36-.44,1.28,1.59.54-.15.44L202.29,38l-.44,1.27,1.06.37-.15.44-1.06-.37L201.25,41l2.6.9-.15.44-2.6-.9-.44,1.28,1.06.37-.15.44-1.06-.37-.45,1.28,1.6.55-.15.44-1.6-.55-.44,1.28,1.07.36-.16.44-1.06-.36-.44,1.27,2.6.9-.15.44-2.61-.9-.44,1.28,1.07.37-.15.44L198.13,50l-.44,1.28,1.6.55-.15.44-1.6-.55L197.09,53l1.07.37-.15.44-1.07-.37-.44,1.28,2.61.9-.15.44-2.61-.9-.73,2.1h7.11L205,50h10.77l2.31,7.3h7.3Zm-8.22,17.73,3.55-11.66h.24l3.6,11.66Z" transform="translate(-7.61 -5.68)"/>
</svg>
