<?xml version="1.0" encoding="UTF-8"?>
<svg id="Layer_1" data-name="Layer 1" xmlns="http://www.w3.org/2000/svg" viewBox="0 0 431.47 264.9">
  <defs>
    <style>
      .cls-1 {
        fill: #e0e2db;
      }

      .cls-2 {
        fill: #e6af2e;
      }
    </style>
  </defs>
  <g>
    <path class="cls-1" d="M404.04,183.31H.04V99.31H404.04v84ZM4.04,179.31H400.04V103.31H4.04v76Z"/>
    <g>
      <rect class="cls-1" x="80.04" y="101.31" width="4" height="80"/>
      <rect class="cls-1" x="160.04" y="101.31" width="4" height="80"/>
      <rect class="cls-1" x="240.04" y="101.31" width="4" height="80"/>
      <rect class="cls-1" x="320.04" y="101.31" width="4" height="80"/>
    </g>
    <g>
      <path class="cls-1" d="M63.53,118.27v44.8h-7.23v-35l-13.82,20.86h-.7l-13.76-20.86v35h-7.23v-44.8h8.51l12.86,19.33,12.86-19.33h8.51Z"/>
      <path class="cls-1" d="M100.26,140.66c0-13.25,9.79-23.17,23.1-23.17,10.37,0,18.62,6.27,21.44,15.55h-7.74c-2.37-5.25-7.42-8.64-13.76-8.64-9.15,0-15.74,6.91-15.74,16.25s6.59,16.25,15.74,16.25c6.34,0,11.39-3.39,13.76-8.64h7.74c-2.82,9.28-11.07,15.55-21.44,15.55-13.31,0-23.1-9.92-23.1-23.17Z"/>
      <path class="cls-1" d="M211.58,151.03h-19.45l-4.54,12.03h-7.68l17.34-44.8h9.22l17.34,44.8h-7.68l-4.54-12.03Zm-2.62-6.85l-7.1-18.75-7.1,18.75h14.21Z"/>
      <path class="cls-1" d="M278,118.27h7.23v44.8h-7.23v-44.8Z"/>
      <path class="cls-1" d="M339.56,140.66c0-13.25,9.79-23.17,23.1-23.17,10.37,0,18.62,6.27,21.44,15.55h-7.74c-2.37-5.25-7.42-8.64-13.76-8.64-9.15,0-15.74,6.91-15.74,16.25s6.59,16.25,15.74,16.25c6.33,0,11.39-3.39,13.76-8.64h7.74c-2.82,9.28-11.07,15.55-21.44,15.55-13.31,0-23.1-9.92-23.1-23.17Z"/>
    </g>
    <path class="cls-1" d="M368.64,210.43v.05l3.04-.04c.09,0,.17,0,.27-.01,9.34,.03,16.94,7.65,16.94,17s-7.59,16.97-16.94,17c-.09,0-.18-.01-.27-.01l-3.04-.02v.04h-20.78v-34h20.78m3.24-3c-.08,0-.16,.01-.24,.01h0s-26.78-.01-26.78-.01v40h26.78c.08-.01,.16,0,.24,0,11.05,0,20-8.95,20-20s-8.95-20-20-20h0Z"/>
    <path class="cls-1" d="M287.66,193.39h6.51c9.04,.35,22.9,7.32,29.52,17.01-6.48,9.8-18.11,16.55-29.52,16.98h-6.51c3.26-5.04,5.01-10.9,5.01-17s-1.75-11.96-5.01-17m-6.24-3c5.07,5.14,8.25,12.21,8.25,20s-3.17,14.86-8.25,20h12.81c13.26-.48,26.29-8.56,33.01-20-6.66-11.34-22.48-19.62-33.01-20h-12.81Z"/>
    <path class="cls-1" d="M260.72,242.51c1.31,0,2.38,1.07,2.38,2.38s-1.07,2.38-2.38,2.38-2.38-1.07-2.38-2.38,1.07-2.38,2.38-2.38m0-3c-2.97,0-5.38,2.41-5.38,5.38s2.41,5.38,5.38,5.38,5.38-2.41,5.38-5.38-2.41-5.38-5.38-5.38h0Z"/>
    <path class="cls-1" d="M232.77,227.9v.05l3.04-.04c.09,0,.17,0,.27-.01,9.34,.03,16.94,7.65,16.94,17s-7.59,16.97-16.94,17c-.09,0-.18-.01-.27-.01l-3.04-.02v.04h-20.78v-34h20.78m3.24-3c-.08,0-.16,.01-.24,.01h0s-26.78-.01-26.78-.01v40h26.78c.08-.01,.16,0,.24,0,11.05,0,20-8.95,20-20s-8.95-20-20-20h0Z"/>
    <g>
      <rect class="cls-1" x="326.24" y="209.64" width="18.57" height="1.5"/>
      <rect class="cls-1" x="265.1" y="244.15" width="79.88" height="1.5"/>
      <polygon class="cls-1" points="209.44 234.4 202.37 234.4 202.37 179.6 203.87 179.6 203.87 232.9 209.44 232.9 209.44 234.4"/>
      <rect class="cls-1" x="203.81" y="198.79" width="84.62" height="1.5"/>
      <polygon class="cls-1" points="288.98 221.05 42.02 221.05 42.02 179.42 43.52 179.42 43.52 219.55 288.98 219.55 288.98 221.05"/>
      <polygon class="cls-1" points="209.74 255.01 43.04 255.01 42.02 216.32 43.52 216.28 44.5 253.51 209.74 253.51 209.74 255.01"/>
      <polygon class="cls-1" points="431.47 228.18 391.88 228.18 391.88 226.68 429.97 226.68 429.97 141.77 400.99 141.77 400.99 140.27 431.47 140.27 431.47 228.18"/>
    </g>
  </g>
  <g>
    <path class="cls-2" d="M269.82,94.46c-3.75,0-6.8-3.05-6.8-6.8s3.05-6.8,6.8-6.8,6.8,3.05,6.8,6.8-3.05,6.8-6.8,6.8Zm0-11.6c-2.65,0-4.8,2.15-4.8,4.8s2.15,4.8,4.8,4.8,4.8-2.15,4.8-4.8-2.15-4.8-4.8-4.8Z"/>
    <path class="cls-2" d="M294.11,94.46c-3.75,0-6.8-3.05-6.8-6.8s3.05-6.8,6.8-6.8,6.8,3.05,6.8,6.8-3.05,6.8-6.8,6.8Zm0-11.6c-2.65,0-4.8,2.15-4.8,4.8s2.15,4.8,4.8,4.8,4.8-2.15,4.8-4.8-2.15-4.8-4.8-4.8Z"/>
    <path class="cls-2" d="M318.4,94.46c-3.75,0-6.8-3.05-6.8-6.8s3.05-6.8,6.8-6.8,6.8,3.05,6.8,6.8-3.05,6.8-6.8,6.8Zm0-11.6c-2.65,0-4.8,2.15-4.8,4.8s2.15,4.8,4.8,4.8,4.8-2.15,4.8-4.8-2.15-4.8-4.8-4.8Z"/>
    <path class="cls-2" d="M256.9,76.41c-3.75,0-6.8-3.05-6.8-6.8s3.05-6.8,6.8-6.8,6.8,3.05,6.8,6.8-3.05,6.8-6.8,6.8Zm0-11.6c-2.65,0-4.8,2.15-4.8,4.8s2.15,4.8,4.8,4.8,4.8-2.15,4.8-4.8-2.15-4.8-4.8-4.8Z"/>
    <path class="cls-2" d="M281.19,76.41c-3.75,0-6.8-3.05-6.8-6.8s3.05-6.8,6.8-6.8,6.8,3.05,6.8,6.8-3.05,6.8-6.8,6.8Zm0-11.6c-2.65,0-4.8,2.15-4.8,4.8s2.15,4.8,4.8,4.8,4.8-2.15,4.8-4.8-2.15-4.8-4.8-4.8Z"/>
    <path class="cls-2" d="M305.48,76.41c-3.75,0-6.8-3.05-6.8-6.8s3.05-6.8,6.8-6.8,6.8,3.05,6.8,6.8-3.05,6.8-6.8,6.8Zm0-11.6c-2.65,0-4.8,2.15-4.8,4.8s2.15,4.8,4.8,4.8,4.8-2.15,4.8-4.8-2.15-4.8-4.8-4.8Z"/>
    <path class="cls-2" d="M329.77,76.41c-3.75,0-6.8-3.05-6.8-6.8s3.05-6.8,6.8-6.8,6.8,3.05,6.8,6.8-3.05,6.8-6.8,6.8Zm0-11.6c-2.65,0-4.8,2.15-4.8,4.8s2.15,4.8,4.8,4.8,4.8-2.15,4.8-4.8-2.15-4.8-4.8-4.8Z"/>
    <path class="cls-2" d="M268.67,58.55c-3.75,0-6.8-3.05-6.8-6.8s3.05-6.8,6.8-6.8,6.8,3.05,6.8,6.8-3.05,6.8-6.8,6.8Zm0-11.6c-2.65,0-4.8,2.15-4.8,4.8s2.15,4.8,4.8,4.8,4.8-2.15,4.8-4.8-2.15-4.8-4.8-4.8Z"/>
    <path class="cls-2" d="M292.96,58.55c-3.75,0-6.8-3.05-6.8-6.8s3.05-6.8,6.8-6.8,6.8,3.05,6.8,6.8-3.05,6.8-6.8,6.8Zm0-11.6c-2.65,0-4.8,2.15-4.8,4.8s2.15,4.8,4.8,4.8,4.8-2.15,4.8-4.8-2.15-4.8-4.8-4.8Z"/>
    <path class="cls-2" d="M317.25,58.55c-3.75,0-6.8-3.05-6.8-6.8s3.05-6.8,6.8-6.8,6.8,3.05,6.8,6.8-3.05,6.8-6.8,6.8Zm0-11.6c-2.65,0-4.8,2.15-4.8,4.8s2.15,4.8,4.8,4.8,4.8-2.15,4.8-4.8-2.15-4.8-4.8-4.8Z"/>
    <path class="cls-2" d="M280.15,40.09c-3.75,0-6.8-3.05-6.8-6.8s3.05-6.8,6.8-6.8,6.8,3.05,6.8,6.8-3.05,6.8-6.8,6.8Zm0-11.6c-2.65,0-4.8,2.15-4.8,4.8s2.15,4.8,4.8,4.8,4.8-2.15,4.8-4.8-2.15-4.8-4.8-4.8Z"/>
    <path class="cls-2" d="M304.44,40.09c-3.75,0-6.8-3.05-6.8-6.8s3.05-6.8,6.8-6.8,6.8,3.05,6.8,6.8-3.05,6.8-6.8,6.8Zm0-11.6c-2.65,0-4.8,2.15-4.8,4.8s2.15,4.8,4.8,4.8,4.8-2.15,4.8-4.8-2.15-4.8-4.8-4.8Z"/>
    <path class="cls-2" d="M292.24,21.37c-3.75,0-6.8-3.05-6.8-6.8s3.05-6.8,6.8-6.8,6.8,3.05,6.8,6.8-3.05,6.8-6.8,6.8Zm0-11.6c-2.65,0-4.8,2.15-4.8,4.8s2.15,4.8,4.8,4.8,4.8-2.15,4.8-4.8-2.15-4.8-4.8-4.8Z"/>
    <rect class="cls-2" x="297.49" y="17.95" width="2" height="11.72" transform="translate(42.02 178.36) rotate(-35.63)"/>
    <rect class="cls-2" x="280.26" y="23.08" width="11.62" height="2" transform="translate(111.33 251.85) rotate(-57.32)"/>
    <rect class="cls-2" x="268.49" y="41.49" width="11.62" height="2" transform="translate(90.42 250.42) rotate(-57.32)"/>
    <rect class="cls-2" x="257.01" y="59.58" width="11.62" height="2" transform="translate(69.91 249.08) rotate(-57.32)"/>
    <rect class="cls-2" x="292.6" y="41.54" width="11.62" height="2" transform="translate(101.48 270.73) rotate(-57.32)"/>
    <rect class="cls-2" x="281.97" y="59.39" width="10.2" height="2" transform="translate(83.63 271.74) rotate(-57.97)"/>
    <rect class="cls-2" x="270.05" y="77.69" width="10.75" height="2" transform="translate(61.55 269.24) rotate(-57.64)"/>
    <rect class="cls-2" x="309.68" y="36.34" width="2" height="11.72" transform="translate(33.59 188.92) rotate(-35.64)"/>
    <rect class="cls-2" x="322.38" y="55.31" width="2" height="10.33" transform="translate(22.29 193.06) rotate(-34.36)"/>
    <rect class="cls-2" x="298.15" y="54.47" width="2" height="11.72" transform="translate(20.87 185.59) rotate(-35.63)"/>
    <rect class="cls-2" x="286.95" y="72.28" width="2" height="11.72" transform="translate(8.39 182.39) rotate(-35.63)"/>
    <rect class="cls-2" x="318.84" y="77.97" width="10.66" height="2" transform="translate(84.29 310.88) rotate(-57.72)"/>
  </g>
  <path class="cls-2" d="M404.1,94.46h-48.92V50.17h48.92v44.29Zm-47.07-1.9h45.23V52.07h-45.23v40.48Z"/>
  <polygon class="cls-2" points="364.28 71.26 362.86 69.85 368.76 63.93 362.86 58.05 364.28 56.64 371.59 63.92 364.28 71.26"/>
  <polygon class="cls-2" points="375.21 71.26 373.79 69.85 379.69 63.93 373.79 58.05 375.21 56.64 382.52 63.92 375.21 71.26"/>
  <g>
    <path class="cls-2" d="M319.81,14.09h-14.07V0h14.07V14.09Zm-12.07-2h10.07V2h-10.07V12.09Z"/>
    <g>
      <path class="cls-2" d="M348.49,55.32h-16.93v-15.42h16.93v15.42Zm-14.93-2h12.93v-11.42h-12.93v11.42Z"/>
      <polygon class="cls-2" points="348.49 40.9 346.49 40.9 346.49 28.47 333.55 28.47 333.55 40.9 331.55 40.9 331.55 26.47 348.49 26.47 348.49 40.9"/>
      <polygon class="cls-2" points="348.49 27.47 346.49 27.47 346.49 15.05 333.55 15.05 333.55 27.47 331.55 27.47 331.55 13.05 348.49 13.05 348.49 27.47"/>
      <polygon class="cls-2" points="348.49 14.55 346.49 14.55 346.49 2.13 333.55 2.13 333.55 14.55 331.55 14.55 331.55 .13 348.49 .13 348.49 14.55"/>
    </g>
    <g>
      <rect class="cls-2" x="318.74" y="6.09" width="10.7" height="2"/>
      <polygon class="cls-2" points="329.1 4.54 329.1 9.64 331.65 7.09 329.1 4.54"/>
    </g>
    <rect class="cls-2" x="332.7" y="1.44" width="14.41" height="11.98"/>
  </g>
  <g>
    <polygon class="cls-2" points="188.08 73.83 243.88 73.83 243.88 73.8 243.9 73.8 243.9 68.62 188.07 68.62 188.07 73.8 188.08 73.8 188.08 73.83"/>
    <path class="cls-2" d="M241.43,91.61v1.84h2.52l-.02-18.35h-57.07v-11.68l-38.06-.31v-9.98l-26.81-11.57h0s-.02-.01-.02-.01l-26.83,11.57v9.98l-38.06,.31v11.68H.01v18.35s2.5,0,2.5,0v-7.64H121.95s0,0,0,0h119.48v5.8ZM63.57,71.17h-2.62v-2.56h2.62v2.56Zm7.34,0h-2.62v-2.56h2.62v2.56Zm7.28,.07h-2.56v-2.62h2.56v2.62Zm7.28,0h-2.56v-2.62h2.56v2.62Zm58.9-9.1v15.46h-14.93v-14.42h-7.44s-.19,0-.19,0h-7.05v14.42h-15.13v-22.83h0l21.82-9.38s.01,0,.02,0l.44-.19h.13s.45,.19,.46,.2l21.82,9.38h.06v7.36Zm-51.63,9.1h-2.56v-2.62h2.56v2.62Zm61.02,0h-2.56v-2.62h2.56v2.62Zm7.28,0h-2.56v-2.62h2.56v2.62Zm7.28,0h-2.56v-2.62h2.56v2.62Zm7.34-.07h-2.62v-2.56h2.62v2.56Zm7.34,0h-2.62v-2.56h2.62v2.56Z"/>
    <rect class="cls-2" x="223.49" y="87.09" width="7.74" height="3.24"/>
    <rect class="cls-2" x="232.46" y="87.09" width="7.74" height="3.24"/>
    <rect class="cls-2" x="205.54" y="87.04" width="7.74" height="3.24"/>
    <rect class="cls-2" x="214.52" y="87.04" width="7.74" height="3.24"/>
    <rect class="cls-2" x="187.59" y="87.1" width="7.74" height="3.24"/>
    <rect class="cls-2" x="196.57" y="87.1" width="7.74" height="3.24"/>
    <rect class="cls-2" x="223.49" y="91.59" width="7.74" height="1.87"/>
    <rect class="cls-2" x="232.46" y="91.59" width="7.74" height="1.87"/>
    <rect class="cls-2" x="205.54" y="91.56" width="7.74" height="1.9"/>
    <rect class="cls-2" x="214.52" y="91.56" width="7.74" height="1.9"/>
    <rect class="cls-2" x="187.59" y="91.59" width="7.74" height="1.87"/>
    <rect class="cls-2" x="196.57" y="91.59" width="7.74" height="1.87"/>
    <polygon class="cls-2" points="171.44 87.04 144.75 87.04 144.75 93.46 186.36 93.46 186.36 87.04 178.09 87.04 171.44 87.04"/>
    <rect class="cls-2" x="140.35" y="87.04" width="3.08" height="6.42"/>
    <rect class="cls-2" x="131.02" y="87.04" width="7.82" height="6.42"/>
    <polygon class="cls-2" points="122.6 93.49 129.33 93.46 129.33 87.04 122.6 87.07 122.6 93.49"/>
    <polygon class="cls-2" points=".05 73.83 55.84 73.83 55.84 73.8 55.85 73.8 55.85 68.62 .03 68.62 .03 73.8 .05 73.8 .05 73.83"/>
    <polygon class="cls-2" points="121.6 46.34 114.75 49.36 114.75 55.42 121.6 55.42 121.6 46.34"/>
    <rect class="cls-2" x="100.83" y="56.33" width="13.01" height="5.91"/>
    <polygon class="cls-2" points="113.84 55.38 113.86 49.74 100.95 55.41 113.84 55.38"/>
    <rect class="cls-2" x="100.79" y="70.45" width="13.01" height="6.01"/>
    <rect class="cls-2" x="12.71" y="87.09" width="7.74" height="3.24"/>
    <rect class="cls-2" x="3.74" y="87.09" width="7.74" height="3.24"/>
    <rect class="cls-2" x="30.66" y="87.04" width="7.74" height="3.24"/>
    <rect class="cls-2" x="21.69" y="87.04" width="7.74" height="3.24"/>
    <rect class="cls-2" x="48.61" y="87.09" width="7.74" height="3.24"/>
    <rect class="cls-2" x="39.63" y="87.09" width="7.74" height="3.24"/>
    <rect class="cls-2" x="12.71" y="91.58" width="7.74" height="1.87"/>
    <rect class="cls-2" x="3.74" y="91.58" width="7.74" height="1.87"/>
    <rect class="cls-2" x="30.66" y="91.55" width="7.74" height="1.9"/>
    <rect class="cls-2" x="21.69" y="91.55" width="7.74" height="1.9"/>
    <rect class="cls-2" x="48.61" y="91.58" width="7.74" height="1.87"/>
    <rect class="cls-2" x="39.63" y="91.58" width="7.74" height="1.87"/>
    <polygon class="cls-2" points="65.85 87.04 57.58 87.04 57.58 93.45 99.2 93.45 99.2 87.04 72.5 87.04 65.85 87.04"/>
    <rect class="cls-2" x="100.61" y="87.04" width="3.08" height="6.42"/>
    <rect class="cls-2" x="105.11" y="87.04" width="7.82" height="6.42"/>
    <rect class="cls-2" x="114.37" y="87.04" width="6.6" height="6.42"/>
    <rect class="cls-2" x="100.83" y="63.22" width="13.01" height="6.25"/>
    <rect class="cls-2" x="114.75" y="56.37" width="6.86" height="5.91"/>
    <polygon class="cls-2" points="122.62 46.35 129.48 49.36 129.48 55.42 122.62 55.42 122.62 46.35"/>
    <rect class="cls-2" x="130.38" y="56.33" width="13.01" height="5.91"/>
    <polygon class="cls-2" points="130.38 55.38 130.36 49.75 143.28 55.41 130.38 55.38"/>
    <rect class="cls-2" x="130.42" y="70.54" width="13.01" height="6.01"/>
    <rect class="cls-2" x="130.38" y="63.22" width="13.01" height="6.25"/>
    <rect class="cls-2" x="122.62" y="56.37" width="6.86" height="5.91"/>
  </g>
</svg>