<svg id="Layer_1" data-name="Layer 1" xmlns="http://www.w3.org/2000/svg" viewBox="0 0 323.22 463.09">
  <defs>
    <style>
      .cls-1, .cls-4 {
        fill-opacity: 0;
        fill-rule: evenodd;
      }

      .cls-1, .cls-2, .cls-5 {
        stroke: #e7b725;
      }

      .cls-1 {
        stroke-miterlimit: 10;
      }

      .cls-2 {
        fill: none;
      }

      .cls-2, .cls-5 {
        stroke-linejoin: round;
        stroke-width: 6.73px;
      }

      .cls-3, .cls-5 {
        fill: #e7b725;
      }
    </style>
  </defs>
  <g>
    <path class="cls-1" d="M205.16,124.51h0a52.07,52.07,0,0,0-52.27-51.85h0a52.49,52.49,0,0,0-36.95,15.15,51.83,51.83,0,0,0-15.32,36.7h0a52.07,52.07,0,0,0,52.27,51.85h0A52.07,52.07,0,0,0,205.16,124.51Z" transform="translate(-94.39 -26.14)"/>
    <path class="cls-2" d="M205.16,124.51h0a52.07,52.07,0,0,0-52.27-51.85h0a52.49,52.49,0,0,0-36.95,15.15,51.83,51.83,0,0,0-15.32,36.7h0a52.07,52.07,0,0,0,52.27,51.85h0A52.07,52.07,0,0,0,205.16,124.51Z" transform="translate(-94.39 -26.14)"/>
    <path class="cls-3" d="M142,140.67V107.93h6.65l3.19,10.43c.34,1,.59,2,.85,2.86s.33,1.52.42,1.86a16.51,16.51,0,0,1,.42-1.86c.17-.84.5-1.85.76-2.86l3-10.43h6.65v32.74H158.7V130.48c0-1.51.08-3.11.16-4.88s.17-3.53.34-5.3.25-3.45.42-5,.34-3,.42-4.21l-4.37,15.49h-5.31L145.82,111c.17,1.18.33,2.44.42,4s.25,3.2.42,5,.25,3.53.34,5.3.16,3.53.16,5.13v10.19Z" transform="translate(-94.39 -26.14)"/>
    <path class="cls-1" d="M309.7,228.21h0a52.07,52.07,0,0,0-52.27-51.85h0a52.49,52.49,0,0,0-37,15.15,51.87,51.87,0,0,0-15.32,36.7h0a52.07,52.07,0,0,0,52.27,51.85h0A52,52,0,0,0,309.7,228.21Z" transform="translate(-94.39 -26.14)"/>
    <path class="cls-2" d="M309.7,228.21h0a52.07,52.07,0,0,0-52.27-51.85h0a52.49,52.49,0,0,0-37,15.15,51.87,51.87,0,0,0-15.32,36.7h0a52.07,52.07,0,0,0,52.27,51.85h0A52,52,0,0,0,309.7,228.21Z" transform="translate(-94.39 -26.14)"/>
    <path class="cls-3" d="M257.6,244.87a12.27,12.27,0,0,1-5.47-1.17,8.27,8.27,0,0,1-3.62-3.37,10.12,10.12,0,0,1-1.26-5.14V220.88a9.88,9.88,0,0,1,1.26-5.13,8.82,8.82,0,0,1,3.62-3.37,12.84,12.84,0,0,1,5.47-1.17,12.3,12.3,0,0,1,5.47,1.17,8.73,8.73,0,0,1,3.62,3.37,10.11,10.11,0,0,1,1.26,5.13h-5.64a4.54,4.54,0,0,0-1.26-3.53,4.74,4.74,0,0,0-3.53-1.18,5.1,5.1,0,0,0-3.54,1.18,4.65,4.65,0,0,0-1.26,3.53v14.31a4.8,4.8,0,1,0,9.59,0H268a10.36,10.36,0,0,1-1.26,5.14,8.73,8.73,0,0,1-3.62,3.37A12.3,12.3,0,0,1,257.6,244.87Z" transform="translate(-94.39 -26.14)"/>
    <path class="cls-1" d="M308.36,434h0c0-28.62-23.4-51.85-52.28-51.85h0a52.53,52.53,0,0,0-36.95,15.15A51.89,51.89,0,0,0,203.81,434h0a52.07,52.07,0,0,0,52.27,51.85h0C285,485.86,308.36,462.63,308.36,434Z" transform="translate(-94.39 -26.14)"/>
    <path class="cls-2" d="M308.36,434h0c0-28.62-23.4-51.85-52.28-51.85h0a52.53,52.53,0,0,0-36.95,15.15A51.89,51.89,0,0,0,203.81,434h0a52.07,52.07,0,0,0,52.27,51.85h0C285,485.86,308.36,462.63,308.36,434Z" transform="translate(-94.39 -26.14)"/>
    <path class="cls-3" d="M256.17,450.59a13.49,13.49,0,0,1-5.81-1.09,8.44,8.44,0,0,1-3.79-3.2,9.43,9.43,0,0,1-1.34-4.88h5.64a4,4,0,0,0,1.43,3.2,6.18,6.18,0,0,0,3.95,1.17A5.8,5.8,0,0,0,260,444.7a3.73,3.73,0,0,0,1.35-3.11,4.28,4.28,0,0,0-1-2.87A5.24,5.24,0,0,0,257.6,437l-3.79-1a11.1,11.1,0,0,1-6-3.54,9.72,9.72,0,0,1-2.11-6.22,9.42,9.42,0,0,1,1.26-4.89,8.7,8.7,0,0,1,3.54-3.19,12.17,12.17,0,0,1,5.47-1.1,11.24,11.24,0,0,1,7.58,2.44,8.59,8.59,0,0,1,2.86,6.57H260.8a3.89,3.89,0,0,0-1.26-3A5.1,5.1,0,0,0,256,422a5.45,5.45,0,0,0-3.45,1,3.56,3.56,0,0,0-1.18,2.95,4.67,4.67,0,0,0,.93,2.86,5.06,5.06,0,0,0,2.69,1.68l3.87,1.1a10.89,10.89,0,0,1,6,3.53,9.82,9.82,0,0,1,2.1,6.23,8.77,8.77,0,0,1-1.34,4.89,9,9,0,0,1-3.79,3.28A14.38,14.38,0,0,1,256.17,450.59Z" transform="translate(-94.39 -26.14)"/>
    <path class="cls-1" d="M414.24,331.91h0A52.07,52.07,0,0,0,362,280.06h0a52.51,52.51,0,0,0-37,15.15,51.87,51.87,0,0,0-15.32,36.7h0A52.07,52.07,0,0,0,362,383.76h0A52,52,0,0,0,414.24,331.91Z" transform="translate(-94.39 -26.14)"/>
    <path class="cls-2" d="M414.24,331.91h0A52.07,52.07,0,0,0,362,280.06h0a52.51,52.51,0,0,0-37,15.15,51.87,51.87,0,0,0-15.32,36.7h0A52.07,52.07,0,0,0,362,383.76h0A52,52,0,0,0,414.24,331.91Z" transform="translate(-94.39 -26.14)"/>
    <path class="cls-3" d="M350,348.07l8.25-32.74h7.24l8.33,32.74h-5.72l-1.77-7.91h-8.67l-1.77,7.91Zm8.59-12.46h6.65l-1.94-8.84c-.34-1.43-.59-2.77-.84-3.95s-.42-2-.51-2.61c-.08.5-.25,1.43-.5,2.61s-.51,2.52-.84,3.95Z" transform="translate(-94.39 -26.14)"/>
    <path class="cls-4" d="M202.3,331.91h0A52.07,52.07,0,0,0,150,280.06h0a52.53,52.53,0,0,0-37,15.15,51.86,51.86,0,0,0-15.31,36.7h0A52.07,52.07,0,0,0,150,383.76h0A52,52,0,0,0,202.3,331.91Z" transform="translate(-94.39 -26.14)"/>
    <path class="cls-2" d="M202.3,331.91h0A52.07,52.07,0,0,0,150,280.06h0a52.53,52.53,0,0,0-37,15.15,51.86,51.86,0,0,0-15.31,36.7h0A52.07,52.07,0,0,0,150,383.76h0A52,52,0,0,0,202.3,331.91Z" transform="translate(-94.39 -26.14)"/>
    <path class="cls-3" d="M150.28,348.57a12.27,12.27,0,0,1-5.47-1.17,8.27,8.27,0,0,1-3.62-3.37,10.12,10.12,0,0,1-1.26-5.14v-14.3a9.92,9.92,0,0,1,1.26-5.14,8.82,8.82,0,0,1,3.62-3.37,12.84,12.84,0,0,1,5.47-1.17,12.3,12.3,0,0,1,5.47,1.17,8.73,8.73,0,0,1,3.62,3.37,10.12,10.12,0,0,1,1.26,5.14H155a4.55,4.55,0,0,0-1.26-3.54,4.75,4.75,0,0,0-3.54-1.18,5.09,5.09,0,0,0-3.53,1.18,4.66,4.66,0,0,0-1.26,3.54v14.3a4.8,4.8,0,1,0,9.59,0h5.64a10.36,10.36,0,0,1-1.26,5.14,8.24,8.24,0,0,1-3.62,3.37A12.3,12.3,0,0,1,150.28,348.57Z" transform="translate(-94.39 -26.14)"/>
    <path class="cls-1" d="M189.84,161.21l30.64,30.38" transform="translate(-94.39 -26.14)"/>
    <path class="cls-2" d="M189.84,161.21l30.64,30.38" transform="translate(-94.39 -26.14)"/>
    <path class="cls-1" d="M294.38,264.91,325,295.29" transform="translate(-94.39 -26.14)"/>
    <path class="cls-2" d="M294.38,264.91,325,295.29" transform="translate(-94.39 -26.14)"/>
    <path class="cls-1" d="M309.7,331.91H202.38" transform="translate(-94.39 -26.14)"/>
    <path class="cls-2" d="M309.7,331.91H202.38" transform="translate(-94.39 -26.14)"/>
    <path class="cls-1" d="M187.06,368.61l32.07,28.7" transform="translate(-94.39 -26.14)"/>
    <path class="cls-2" d="M187.06,368.61l32.07,28.7" transform="translate(-94.39 -26.14)"/>
    <path class="cls-5" d="M207.52,175.26c8.33,3,10.43-15.15,10.43-15.15s-13.72,2.95-14,8.5S207.52,175.26,207.52,175.26Z" transform="translate(-94.39 -26.14)"/>
    <path class="cls-5" d="M303.56,275.6c-8.34-3-10.44,15.15-10.44,15.15s13.72-2.95,14.06-8.5C307.68,276.78,303.56,275.6,303.56,275.6Z" transform="translate(-94.39 -26.14)"/>
    <path class="cls-5" d="M262.14,336.79c-6.65,5.81,8.25,16.41,8.25,16.41s4-13.38-.59-16.41S262.14,336.79,262.14,336.79Z" transform="translate(-94.39 -26.14)"/>
    <path class="cls-5" d="M248.09,329.3c7.32-4.88-6-17.42-6-17.42s-5.81,12.71-1.6,16.33S248.09,329.3,248.09,329.3Z" transform="translate(-94.39 -26.14)"/>
    <path class="cls-5" d="M204.57,388.89c-5.47-6.9-16.83,7.41-16.83,7.41s13.13,4.71,16.41.25S204.57,388.89,204.57,388.89Z" transform="translate(-94.39 -26.14)"/>
    <path class="cls-3" d="M176.46,97.07,168.29,53.8a16.19,16.19,0,0,0-10.35-8.33c-7.83-2.27-1.85-6.82-6-13.3s-6.39-6.57-12.29-5.56-5.3,4.55-5.3,4.55-.76-.67-3.53,2.1-1.1,3.88-1.1,3.88l2.95-1.35a1.41,1.41,0,0,1,1.93.76l.42,1.18a5.11,5.11,0,0,1-.16,3.36L133.7,43.7s-3.37-.5-4,10.1c-.93,10.52,9.76,23.57,9.76,23.57s1.94,5,20.79,14.06S176.46,97.07,176.46,97.07Z" transform="translate(-94.39 -26.14)"/>
    <path class="cls-3" d="M126.46,300l8.16-43.27A16.23,16.23,0,0,1,145,248.41c7.82-2.27,1.85-6.82,6-13.3s6.4-6.57,12.29-5.56,5.3,4.55,5.3,4.55.76-.67,3.54,2.1,1.09,3.88,1.09,3.88l-2.94-1.35a1.42,1.42,0,0,0-1.94.76l-.42,1.18A5.11,5.11,0,0,0,168,244l1.18,2.61s3.36-.5,4,10.1-9.93,23.65-9.93,23.65-1.94,5.06-20.79,14.06C123.93,303.54,126.46,300,126.46,300Z" transform="translate(-94.39 -26.14)"/>
    <path class="cls-3" d="M393.29,315.24,385.12,272a16.22,16.22,0,0,0-10.35-8.34c-7.83-2.27-1.85-6.81-6-13.29s-6.4-6.57-12.29-5.56-5.3,4.55-5.3,4.55-.76-.68-3.54,2.1-1.09,3.87-1.09,3.87l2.95-1.35a1.42,1.42,0,0,1,1.93.76l.42,1.18a5.08,5.08,0,0,1-.17,3.37l-1.17,2.61s-3.37-.51-4,10.1,9.93,23.65,9.93,23.65,1.93,5.05,20.79,14.06C395.81,318.78,393.29,315.24,393.29,315.24Z" transform="translate(-94.39 -26.14)"/>
  </g>
</svg>
